<?xml version="1.0" encoding="us-ascii" standalone="no"?><svg xmlns="http://www.w3.org/2000/svg" xmlns:xlink="http://www.w3.org/1999/xlink" contentStyleType="text/css" height="1485px" preserveAspectRatio="none" style="width:1319px;height:1485px;background:#FFFFFF;" version="1.1" viewBox="0 0 1319 1485" width="1319px" zoomAndPan="magnify"><defs/><g><ellipse cx="904" cy="16" fill="#222222" rx="10" ry="10" style="stroke:#222222;stroke-width:1.0;"/><path d="M625.5,104 L1182,104 A12.5,12.5 0 0 1 1194.5,116.5 L1194.5,131.6094 L613,131.6094 L613,116.5 A12.5,12.5 0 0 1 625.5,104 " fill="#F8F9FA" style="stroke:#F8F9FA;stroke-width:1.0;"/><rect fill="none" height="617.6094" rx="12.5" ry="12.5" style="stroke:#2563EB;stroke-width:0.5;" width="581.5" x="613" y="104"/><line style="stroke:#2563EB;stroke-width:0.5;" x1="613" x2="1194.5" y1="131.6094" y2="131.6094"/><text fill="#000000" font-family="sans-serif" font-size="14" lengthAdjust="spacing" textLength="78" x="864.75" y="123.5332">INITIALIZING</text><ellipse cx="768.5" cy="152.6094" fill="#222222" rx="10" ry="10" style="stroke:#222222;stroke-width:1.0;"/><g id="INITIALIZING.EvaluatingData"><rect fill="#F8F9FA" height="52.7031" rx="12.5" ry="12.5" style="stroke:#2563EB;stroke-width:0.5;" width="287" x="625" y="199.6094"/><line style="stroke:#2563EB;stroke-width:0.5;" x1="625" x2="912" y1="227.2188" y2="227.2188"/><text fill="#000000" font-family="sans-serif" font-size="14" lengthAdjust="spacing" textLength="96" x="720.5" y="219.1426">EvaluatingData</text><text fill="#000000" font-family="sans-serif" font-size="12" lengthAdjust="spacing" textLength="267" x="630" y="244.6758">_evaluate_target_function(), _validate_y_values()</text></g><g id="INITIALIZING.CleaningData"><rect fill="#F8F9FA" height="52.7031" rx="12.5" ry="12.5" style="stroke:#2563EB;stroke-width:0.5;" width="291" x="874" y="306.6094"/><line style="stroke:#2563EB;stroke-width:0.5;" x1="874" x2="1165" y1="334.2188" y2="334.2188"/><text fill="#000000" font-family="sans-serif" font-size="14" lengthAdjust="spacing" textLength="86" x="976.5" y="326.1426">CleaningData</text><text fill="#000000" font-family="sans-serif" font-size="12" lengthAdjust="spacing" textLength="271" x="879" y="351.6758">Filter NaNs and asymptotes / _prepare_data(self)</text></g><g id="INITIALIZING.ErrorFallback"><rect fill="#F8F9FA" height="52.7031" rx="12.5" ry="12.5" style="stroke:#2563EB;stroke-width:0.5;" width="153" x="676" y="416.6094"/><line style="stroke:#2563EB;stroke-width:0.5;" x1="676" x2="829" y1="444.2188" y2="444.2188"/><text fill="#000000" font-family="sans-serif" font-size="14" lengthAdjust="spacing" textLength="85" x="710" y="436.1426">ErrorFallback</text><text fill="#000000" font-family="sans-serif" font-size="12" lengthAdjust="spacing" textLength="133" x="681" y="461.6758">_use_no_plot_fallback()</text></g><g id="INITIALIZING.GeneratingAudio"><rect fill="#F8F9FA" height="52.7031" rx="12.5" ry="12.5" style="stroke:#2563EB;stroke-width:0.5;" width="184" x="817.5" y="509.6094"/><line style="stroke:#2563EB;stroke-width:0.5;" x1="817.5" x2="1001.5" y1="537.2188" y2="537.2188"/><text fill="#000000" font-family="sans-serif" font-size="14" lengthAdjust="spacing" textLength="107" x="856" y="529.1426">GeneratingAudio</text><text fill="#000000" font-family="sans-serif" font-size="12" lengthAdjust="spacing" textLength="164" x="822.5" y="554.6758">_generate_audio_sequence()</text></g><g id="elem_GMN15"><path d="M847,413.6094 L847,439.1094 L829.15,443.1094 L847,447.1094 L847,472.6641 A0,0 0 0 0 847,472.6641 L1030,472.6641 A0,0 0 0 0 1030,472.6641 L1030,423.6094 L1020,413.6094 L847,413.6094 A0,0 0 0 0 847,413.6094 " fill="#FEFFDD" style="stroke:#181818;stroke-width:0.5;"/><path d="M1020,413.6094 L1020,423.6094 L1030,423.6094 L1020,413.6094 " fill="#FEFFDD" style="stroke:#181818;stroke-width:0.5;"/><text fill="#000000" font-family="sans-serif" font-size="13" lengthAdjust="spacing" textLength="127" x="853" y="432.1045">Safely catches errors,</text><text fill="#000000" font-family="sans-serif" font-size="13" lengthAdjust="spacing" textLength="162" x="853" y="448.4561">sets has_plot_data = False,</text><text fill="#000000" font-family="sans-serif" font-size="13" lengthAdjust="spacing" textLength="151" x="853" y="464.8076">provides safe dummy data</text></g><g id="elem_GMN19"><path d="M1019.5,514.6094 L1019.5,532.1094 L1001.85,536.1094 L1019.5,540.1094 L1019.5,557.3125 A0,0 0 0 0 1019.5,557.3125 L1185.5,557.3125 A0,0 0 0 0 1185.5,557.3125 L1185.5,524.6094 L1175.5,514.6094 L1019.5,514.6094 A0,0 0 0 0 1019.5,514.6094 " fill="#FEFFDD" style="stroke:#181818;stroke-width:0.5;"/><path d="M1175.5,514.6094 L1175.5,524.6094 L1185.5,524.6094 L1175.5,514.6094 " fill="#FEFFDD" style="stroke:#181818;stroke-width:0.5;"/><text fill="#000000" font-family="sans-serif" font-size="13" lengthAdjust="spacing" textLength="139" x="1025.5" y="533.1045">Normalizes frequencies,</text><text fill="#000000" font-family="sans-serif" font-size="13" lengthAdjust="spacing" textLength="145" x="1025.5" y="549.4561">synthesizes stereo audio</text></g><g id="INITIALIZING.SettingUpPlot"><rect fill="#F8F9FA" height="52.7031" rx="12.5" ry="12.5" style="stroke:#2563EB;stroke-width:0.5;" width="105" x="857" y="599.6094"/><line style="stroke:#2563EB;stroke-width:0.5;" x1="857" x2="962" y1="627.2188" y2="627.2188"/><text fill="#000000" font-family="sans-serif" font-size="14" lengthAdjust="spacing" textLength="85" x="867" y="619.1426">SettingUpPlot</text><text fill="#000000" font-family="sans-serif" font-size="12" lengthAdjust="spacing" textLength="73" x="862" y="644.6758">_setup_plot()</text></g><g id="elem_GMN24"><path d="M980.5,604.6094 L980.5,622.1094 L962.05,626.1094 L980.5,630.1094 L980.5,647.3125 A0,0 0 0 0 980.5,647.3125 L1142.5,647.3125 A0,0 0 0 0 1142.5,647.3125 L1142.5,614.6094 L1132.5,604.6094 L980.5,604.6094 A0,0 0 0 0 980.5,604.6094 " fill="#FEFFDD" style="stroke:#181818;stroke-width:0.5;"/><path d="M1132.5,604.6094 L1132.5,614.6094 L1142.5,614.6094 L1132.5,604.6094 " fill="#FEFFDD" style="stroke:#181818;stroke-width:0.5;"/><text fill="#000000" font-family="sans-serif" font-size="13" lengthAdjust="spacing" textLength="141" x="986.5" y="623.1045">Configures matplotlib UI,</text><text fill="#000000" font-family="sans-serif" font-size="13" lengthAdjust="spacing" textLength="103" x="986.5" y="639.4561">binds close_event</text></g><ellipse cx="909.5" cy="700.6094" fill="none" rx="11" ry="11" style="stroke:#222222;stroke-width:1.0;"/><ellipse cx="909.5" cy="700.6094" fill="#222222" rx="6" ry="6" style="stroke:#222222;stroke-width:1.0;"/><!--link *start*INITIALIZING to EvaluatingData--><g id="link_*start*INITIALIZING_EvaluatingData"><path d="M768.5,162.6694 C768.5,171.9094 768.5,180.6894 768.5,193.5394 " fill="none" id="*start*INITIALIZING-to-EvaluatingData" style="stroke:#333333;stroke-width:1.0;"/><polygon fill="#333333" points="768.5,199.5394,772.5,190.5394,768.5,194.5394,764.5,190.5394,768.5,199.5394" style="stroke:#333333;stroke-width:1.0;"/></g><!--link EvaluatingData to CleaningData--><g id="link_EvaluatingData_CleaningData"><path d="M829.58,252.6594 C868.62,268.9894 913.5247,287.7741 952.6147,304.1241 " fill="none" id="EvaluatingData-to-CleaningData" style="stroke:#333333;stroke-width:1.0;"/><polygon fill="#333333" points="958.15,306.4394,951.3905,299.2763,953.5372,304.51,948.3035,306.6567,958.15,306.4394" style="stroke:#333333;stroke-width:1.0;"/><text fill="#000000" font-family="sans-serif" font-size="13" lengthAdjust="spacing" textLength="133" x="909.5" y="285.1045">[Evaluation successful]</text></g><!--link EvaluatingData to ErrorFallback--><g id="link_EvaluatingData_ErrorFallback"><path d="M766.54,252.8894 C765.37,268.4494 763.84,288.6694 762.5,306.6094 C759.65,344.8294 756.8292,383.1455 754.8292,410.3955 " fill="none" id="EvaluatingData-to-ErrorFallback" style="stroke:#333333;stroke-width:1.0;"/><polygon fill="#333333" points="754.39,416.3794,759.038,407.6963,754.756,411.3928,751.0595,407.1107,754.39,416.3794" style="stroke:#333333;stroke-width:1.0;"/><text fill="#000000" font-family="sans-serif" font-size="13" lengthAdjust="spacing" textLength="101" x="763.5" y="338.6045">[Evaluation failed]</text></g><!--link CleaningData to GeneratingAudio--><g id="link_CleaningData_GeneratingAudio"><path d="M1032.67,359.7094 C1045.82,389.2094 1061.23,438.0594 1039.5,472.6094 C1029.44,488.6194 1019.2913,497.7906 1002.5313,506.7506 " fill="none" id="CleaningData-to-GeneratingAudio" style="stroke:#333333;stroke-width:1.0;"/><polygon fill="#333333" points="997.24,509.5794,1007.0628,508.8638,1001.6494,507.2221,1003.2911,501.8087,997.24,509.5794" style="stroke:#333333;stroke-width:1.0;"/><text fill="#000000" font-family="sans-serif" font-size="13" lengthAdjust="spacing" textLength="104" x="1050.5" y="448.6045">[x_clean.size &gt; 0]</text></g><!--link CleaningData to ErrorFallback--><g id="link_CleaningData_ErrorFallback"><path d="M956.22,359.6994 C913.82,376.8594 863.7524,397.11 821.3424,414.26 " fill="none" id="CleaningData-to-ErrorFallback" style="stroke:#333333;stroke-width:1.0;"/><polygon fill="#333333" points="815.78,416.5094,825.6232,416.8436,820.4153,414.6349,822.624,409.4271,815.78,416.5094" style="stroke:#333333;stroke-width:1.0;"/><text fill="#000000" font-family="sans-serif" font-size="13" lengthAdjust="spacing" textLength="112" x="910.5" y="392.1045">[x_clean.size == 0]</text></g><!--link ErrorFallback to GeneratingAudio--><g id="link_ErrorFallback_GeneratingAudio"><path d="M796.65,469.6994 C818.15,482.1594 838.7283,494.0916 860.2183,506.5416 " fill="none" id="ErrorFallback-to-GeneratingAudio" style="stroke:#333333;stroke-width:1.0;"/><polygon fill="#333333" points="865.41,509.5494,859.6276,501.5766,861.0836,507.0429,855.6173,508.4989,865.41,509.5494" style="stroke:#333333;stroke-width:1.0;"/></g><!--link GeneratingAudio to SettingUpPlot--><g id="link_GeneratingAudio_SettingUpPlot"><path d="M909.5,563.0394 C909.5,574.4894 909.5,581.9294 909.5,593.3694 " fill="none" id="GeneratingAudio-to-SettingUpPlot" style="stroke:#333333;stroke-width:1.0;"/><polygon fill="#333333" points="909.5,599.3694,913.5,590.3694,909.5,594.3694,905.5,590.3694,909.5,599.3694" style="stroke:#333333;stroke-width:1.0;"/></g><!--link SettingUpPlot to *end*INITIALIZING--><g id="link_SettingUpPlot_*end*INITIALIZING"><path d="M909.5,652.8694 C909.5,665.5694 909.5,674.1494 909.5,683.5994 " fill="none" id="SettingUpPlot-to-*end*INITIALIZING" style="stroke:#333333;stroke-width:1.0;"/><polygon fill="#333333" points="909.5,689.5994,913.5,680.5994,909.5,684.5994,905.5,680.5994,909.5,689.5994" style="stroke:#333333;stroke-width:1.0;"/></g><g id="READY"><rect fill="#F8F9FA" height="50" rx="12.5" ry="12.5" style="stroke:#2563EB;stroke-width:0.5;" width="67" x="870.5" y="783"/><line style="stroke:#2563EB;stroke-width:0.5;" x1="870.5" x2="937.5" y1="810.6094" y2="810.6094"/><text fill="#000000" font-family="sans-serif" font-size="14" lengthAdjust="spacing" textLength="47" x="880.5" y="802.5332">READY</text></g><path d="M19.5,911 L960.5,911 A12.5,12.5 0 0 1 973,923.5 L973,938.6094 L7,938.6094 L7,923.5 A12.5,12.5 0 0 1 19.5,911 " fill="#F8F9FA" style="stroke:#F8F9FA;stroke-width:1.0;"/><rect fill="none" height="467.6094" rx="12.5" ry="12.5" style="stroke:#2563EB;stroke-width:0.5;" width="966" x="7" y="911"/><line style="stroke:#2563EB;stroke-width:0.5;" x1="7" x2="973" y1="938.6094" y2="938.6094"/><text fill="#000000" font-family="sans-serif" font-size="14" lengthAdjust="spacing" textLength="73" x="453.5" y="930.5332">ANIMATING</text><ellipse cx="222.5" cy="959.6094" fill="#222222" rx="10" ry="10" style="stroke:#222222;stroke-width:1.0;"/><g id="ANIMATING.EvaluatingDataState"><rect fill="#F8F9FA" height="50" rx="12.5" ry="12.5" style="stroke:#2563EB;stroke-width:0.5;" width="149" x="148" y="1006.6094"/><line style="stroke:#2563EB;stroke-width:0.5;" x1="148" x2="297" y1="1034.2188" y2="1034.2188"/><text fill="#000000" font-family="sans-serif" font-size="14" lengthAdjust="spacing" textLength="129" x="158" y="1026.1426">EvaluatingDataState</text></g><g id="ANIMATING.NoDataIdle"><rect fill="#F8F9FA" height="50" rx="12.5" ry="12.5" style="stroke:#2563EB;stroke-width:0.5;" width="89" x="19" y="1110.6094"/><line style="stroke:#2563EB;stroke-width:0.5;" x1="19" x2="108" y1="1138.2188" y2="1138.2188"/><text fill="#000000" font-family="sans-serif" font-size="14" lengthAdjust="spacing" textLength="69" x="29" y="1130.1426">NoDataIdle</text></g><g id="ANIMATING.PendingFirstFrame"><rect fill="#F8F9FA" height="50" rx="12.5" ry="12.5" style="stroke:#2563EB;stroke-width:0.5;" width="141" x="312" y="1110.6094"/><line style="stroke:#2563EB;stroke-width:0.5;" x1="312" x2="453" y1="1138.2188" y2="1138.2188"/><text fill="#000000" font-family="sans-serif" font-size="14" lengthAdjust="spacing" textLength="121" x="322" y="1130.1426">PendingFirstFrame</text></g><g id="ANIMATING.PlaybackAndSync"><rect fill="#F8F9FA" height="50" rx="12.5" ry="12.5" style="stroke:#2563EB;stroke-width:0.5;" width="133" x="316" y="1214.6094"/><line style="stroke:#2563EB;stroke-width:0.5;" x1="316" x2="449" y1="1242.2188" y2="1242.2188"/><text fill="#000000" font-family="sans-serif" font-size="14" lengthAdjust="spacing" textLength="113" x="326" y="1234.1426">PlaybackAndSync</text></g><g id="ANIMATING.SequenceComplete"><rect fill="#F8F9FA" height="50" rx="12.5" ry="12.5" style="stroke:#2563EB;stroke-width:0.5;" width="144" x="310.5" y="1318.6094"/><line style="stroke:#2563EB;stroke-width:0.5;" x1="310.5" x2="454.5" y1="1346.2188" y2="1346.2188"/><text fill="#000000" font-family="sans-serif" font-size="14" lengthAdjust="spacing" textLength="124" x="320.5" y="1338.1426">SequenceComplete</text></g><!--link *start*ANIMATING to EvaluatingDataState--><g id="link_*start*ANIMATING_EvaluatingDataState"><path d="M222.5,969.7594 C222.5,979.0294 222.5,987.7494 222.5,1000.3894 " fill="none" id="*start*ANIMATING-to-EvaluatingDataState" style="stroke:#333333;stroke-width:1.0;"/><polygon fill="#333333" points="222.5,1006.3894,226.5,997.3894,222.5,1001.3894,218.5,997.3894,222.5,1006.3894" style="stroke:#333333;stroke-width:1.0;"/></g><!--link EvaluatingDataState to NoDataIdle--><g id="link_EvaluatingDataState_NoDataIdle"><path d="M184.82,1056.7794 C159.57,1072.9794 131.49,1090.9894 106.24,1107.1894 " fill="none" id="EvaluatingDataState-to-NoDataIdle" style="stroke:#333333;stroke-width:1.0;"/><polygon fill="#333333" points="101.19,1110.4294,110.925,1108.936,105.3983,1107.7294,106.605,1102.2027,101.19,1110.4294" style="stroke:#333333;stroke-width:1.0;"/><text fill="#000000" font-family="sans-serif" font-size="13" lengthAdjust="spacing" textLength="145" x="153.5" y="1089.1045">[has_plot_data == False]</text></g><!--link EvaluatingDataState to PendingFirstFrame--><g id="link_EvaluatingDataState_PendingFirstFrame"><path d="M272.52,1056.8394 C282.94,1062.3594 293.73,1068.4294 303.5,1074.6094 C320.68,1085.4694 334.0928,1095.3489 348.6428,1106.8489 " fill="none" id="EvaluatingDataState-to-PendingFirstFrame" style="stroke:#333333;stroke-width:1.0;"/><polygon fill="#333333" points="353.35,1110.5694,348.7695,1101.8505,349.4273,1107.469,343.8088,1108.1268,353.35,1110.5694" style="stroke:#333333;stroke-width:1.0;"/><text fill="#000000" font-family="sans-serif" font-size="13" lengthAdjust="spacing" textLength="138" x="328.5" y="1089.1045">[has_plot_data == True]</text></g><!--link NoDataIdle to NoDataIdle--><g id="link_NoDataIdle_NoDataIdle"><path d="M108.16,1126.0694 C118.45,1126.8994 126,1130.0694 126,1135.6094 C126,1141.1494 124.4306,1143.837 114.1406,1144.667 " fill="none" id="NoDataIdle-to-NoDataIdle" style="stroke:#333333;stroke-width:1.0;"/><polygon fill="#333333" points="108.16,1145.1494,117.4525,1148.4128,113.1438,1144.7474,116.8093,1140.4387,108.16,1145.1494" style="stroke:#333333;stroke-width:1.0;"/><text fill="#000000" font-family="sans-serif" font-size="13" lengthAdjust="spacing" textLength="156" x="132" y="1141.1045">update / return empty point</text></g><!--link PendingFirstFrame to PlaybackAndSync--><g id="link_PendingFirstFrame_PlaybackAndSync"><path d="M382.5,1160.7794 C382.5,1176.9194 382.5,1192.0794 382.5,1208.2594 " fill="none" id="PendingFirstFrame-to-PlaybackAndSync" style="stroke:#333333;stroke-width:1.0;"/><polygon fill="#333333" points="382.5,1214.2594,386.5,1205.2594,382.5,1209.2594,378.5,1205.2594,382.5,1214.2594" style="stroke:#333333;stroke-width:1.0;"/><text fill="#000000" font-family="sans-serif" font-size="13" lengthAdjust="spacing" textLength="506" x="383.5" y="1193.1045">update [audio_started == False] / sd.play(), record latency &amp; time, audio_started = True</text></g><!--link PlaybackAndSync to PlaybackAndSync--><g id="link_PlaybackAndSync_PlaybackAndSync"><path d="M449.1,1230.6294 C459.72,1231.9494 467,1234.9394 467,1239.6094 C467,1244.2794 465.6742,1246.5293 455.0542,1247.8493 " fill="none" id="PlaybackAndSync-to-PlaybackAndSync" style="stroke:#333333;stroke-width:1.0;"/><polygon fill="#333333" points="449.1,1248.5894,458.5247,1251.4487,454.0618,1247.9727,457.5379,1243.5098,449.1,1248.5894" style="stroke:#333333;stroke-width:1.0;"/><text fill="#000000" font-family="sans-serif" font-size="13" lengthAdjust="spacing" textLength="485" x="473" y="1245.1045">update [current_index &lt; len(x_clean)] / calculate elapsed time, update point position</text></g><!--link PlaybackAndSync to SequenceComplete--><g id="link_PlaybackAndSync_SequenceComplete"><path d="M382.5,1264.7794 C382.5,1280.9194 382.5,1296.0794 382.5,1312.2594 " fill="none" id="PlaybackAndSync-to-SequenceComplete" style="stroke:#333333;stroke-width:1.0;"/><polygon fill="#333333" points="382.5,1318.2594,386.5,1309.2594,382.5,1313.2594,378.5,1309.2594,382.5,1318.2594" style="stroke:#333333;stroke-width:1.0;"/><text fill="#000000" font-family="sans-serif" font-size="13" lengthAdjust="spacing" textLength="433" x="383.5" y="1297.1045">update [current_index &gt;= len(x_clean)] / clamp index, update point position</text></g><!--link SequenceComplete to SequenceComplete--><g id="link_SequenceComplete_SequenceComplete"><path d="M454.53,1334.7694 C465.25,1336.1394 472.5,1339.0894 472.5,1343.6094 C472.5,1348.1294 471.2016,1350.3188 460.4816,1351.6888 " fill="none" id="SequenceComplete-to-SequenceComplete" style="stroke:#333333;stroke-width:1.0;"/><polygon fill="#333333" points="454.53,1352.4494,463.9645,1355.2762,459.4897,1351.8155,462.9503,1347.3407,454.53,1352.4494" style="stroke:#333333;stroke-width:1.0;"/><text fill="#000000" font-family="sans-serif" font-size="13" lengthAdjust="spacing" textLength="156" x="478.5" y="1349.1045">update / hold point position</text></g><ellipse cx="766" cy="1468" fill="none" rx="11" ry="11" style="stroke:#222222;stroke-width:1.0;"/><ellipse cx="766" cy="1468" fill="#222222" rx="6" ry="6" style="stroke:#222222;stroke-width:1.0;"/><!--link *start* to INITIALIZING--><g id="link_*start*_INITIALIZING"><path d="M904,26.37 C904,40.28 904,62.55 904,97.76 " fill="none" id="*start*-to-INITIALIZING" style="stroke:#333333;stroke-width:1.0;"/><polygon fill="#333333" points="904,103.76,908,94.76,904,98.76,900,94.76,904,103.76" style="stroke:#333333;stroke-width:1.0;"/><text fill="#000000" font-family="sans-serif" font-size="13" lengthAdjust="spacing" textLength="255" x="905" y="70.4951">Instantiate / AudioVisualizer(target_function)</text></g><!--link INITIALIZING to READY--><g id="link_INITIALIZING_READY"><path d="M904,722.21 C904,746.75 904,761.81 904,776.8 " fill="none" id="INITIALIZING-to-READY" style="stroke:#333333;stroke-width:1.0;"/><polygon fill="#333333" points="904,782.8,908,773.8,904,777.8,900,773.8,904,782.8" style="stroke:#333333;stroke-width:1.0;"/></g><!--link READY to ANIMATING--><g id="link_READY_ANIMATING"><path d="M870.2,822.75 C847.95,832.51 818.67,846.73 795,863 C773.49,877.78 756.6372,890.2618 735.5172,907.2318 " fill="none" id="READY-to-ANIMATING" style="stroke:#333333;stroke-width:1.0;"/><polygon fill="#333333" points="730.84,910.99,740.3612,908.4709,734.7377,907.8582,735.3504,902.2346,730.84,910.99" style="stroke:#333333;stroke-width:1.0;"/><text fill="#000000" font-family="sans-serif" font-size="13" lengthAdjust="spacing" textLength="220" x="796" y="877.4951">Animating with FuncAnimation / play()</text></g><!--link ANIMATING to *end*--><g id="link_ANIMATING_*end*"><path d="M690.58,1379.29 C721.68,1415.46 743.4892,1440.8196 755.2292,1454.4796 " fill="none" id="ANIMATING-to-*end*" style="stroke:#333333;stroke-width:1.0;"/><polygon fill="#333333" points="759.14,1459.03,756.3074,1449.5973,755.881,1455.238,750.2403,1454.8116,759.14,1459.03" style="stroke:#333333;stroke-width:1.0;"/><text fill="#000000" font-family="sans-serif" font-size="13" lengthAdjust="spacing" textLength="248" x="727" y="1423.4951">close_event / sd.stop(), Terminate Process</text></g><!--link READY to *end*--><g id="link_READY_*end*"><path d="M937.71,814.44 C965.36,820.87 1002.79,834.54 1021,863 C1088.69,968.8 1071.17,1336.57 984,1427 C954.89,1457.2 823.265,1464.7255 783.055,1466.3655 " fill="none" id="READY-to-*end*" style="stroke:#333333;stroke-width:1.0;"/><polygon fill="#333333" points="777.06,1466.61,786.2155,1470.2399,782.0558,1466.4062,785.8895,1462.2466,777.06,1466.61" style="stroke:#333333;stroke-width:1.0;"/><text fill="#000000" font-family="sans-serif" font-size="13" lengthAdjust="spacing" textLength="248" x="1063" y="1150.4951">close_event / sd.stop(), Terminate Process</text></g><!--SRC=[bLL_Inj14Fq_dsAWK98IjRIqjD88Pqpae0tIn49hmx7UJfB5lTth_b2lfT-zitUdCNTde296P_RDUpCxRxKtGkNCi0oiOmxXJm_WbAKtQwEzucCjjO4Nqm_JZzCePBJXQEhectVltqvEAHePe-_guDlog_UtrxjwjOI3WnE8P_4YZZx7F-BPEHn3h8X8EH78ZY3oNEXlmdecnMyqVSVC6bsoyYfrGgj1hrV9sYaID3vKdzmowPaJQdt67AC4VU_6u3Z1Ae19etn_C8I4SeA7P15-zMZxWyuoWMqiaQd7kd3rS4Ghi3vDqTgLbyjkx8IcPAPCociQRmEyOa8YNrQy3PAfa0uDpDZC0bCSc2sot6c7bkQNv0Rf-Z2X3bZVebmDEee4-dDKQ4f5vSo3WFia3QSEBOqUJk3riWlNahs36eqgM6YvSJ3n5XEbarngcdWTBsUhI3mOiTuuqAiMRivMA0j8cKitr2E6j1t-L1QTXGspLS7GBuo0S1OfcHjzApWTjuG6xhEi0BvTY1sAhcbKvzepIjPL21CM8ed5NnvLYXrzjC4pRR9ohosiJ0KKMBPIA4UzbHbBbuiQolBTAeBUEReGkCmlgFbQxMwCjDA4V5wEfqDUy_HOgvLOUqCICkO2I8fhk8n9thLGt48gDLqWtg9oNNn15PamE7t7d27-THATVOTUh_eCaMWMVuaMrGiGAP6LxS6TS1kOaXdh43dX27B9YlwZyRV0vrq_3oUxF5icIi1CXxzZBZ6iS6EBwZLQxi5VeE8Kd0fZtPHUo-uo2-EnTiCJmXQ_ptdr-XcwCAC0oSy5v5eyJBhDLcgWmOG5ZXIV5ohT5hggTvDUDuTysmynM7vOpND8P2cztY09eT82Ne8J6GwXWIrxg5Kq-FPhIBqnj2e9xGxUmoUGgFhrKp48Ib8cKn_80INBBN5L_3M-x9v-MX7Mu7a1yzg0Ovtb4Xq-g-1ar9OWMPP3cTxBs-BOJtm46orvinBvOhkxjLa8yyHLrVLOf_DmFGiqcL2XteNHuJ_94_VyD_GV]--></g></svg>