<?xml version="1.0" encoding="us-ascii" standalone="no"?><svg xmlns="http://www.w3.org/2000/svg" xmlns:xlink="http://www.w3.org/1999/xlink" contentStyleType="text/css" height="1281px" preserveAspectRatio="none" style="width:1308px;height:1281px;background:#FFFFFF;" version="1.1" viewBox="0 0 1308 1281" width="1308px" zoomAndPan="magnify"><defs/><g><ellipse cx="827.5" cy="16" fill="#222222" rx="10" ry="10" style="stroke:#222222;stroke-width:1.0;"/><path d="M372.5,104 L1282,104 A12.5,12.5 0 0 1 1294.5,116.5 L1294.5,131.6094 L360,131.6094 L360,116.5 A12.5,12.5 0 0 1 372.5,104 " fill="#FFFFFF" style="stroke:#FFFFFF;stroke-width:1.0;"/><rect fill="none" height="517.6094" rx="12.5" ry="12.5" style="stroke:#2563EB;stroke-width:0.5;" width="934.5" x="360" y="104"/><line style="stroke:#2563EB;stroke-width:0.5;" x1="360" x2="1294.5" y1="131.6094" y2="131.6094"/><text fill="#000000" font-family="sans-serif" font-size="14" lengthAdjust="spacing" textLength="79" x="787.75" y="123.5332">INITIALISING</text><ellipse cx="702.5" cy="152.6094" fill="#222222" rx="10" ry="10" style="stroke:#222222;stroke-width:1.0;"/><g id="INITIALISING.PreparingData"><rect fill="#FFFFFF" height="52.7031" rx="12.5" ry="12.5" style="stroke:#2563EB;stroke-width:0.5;" width="144" x="630.5" y="219.1094"/><line style="stroke:#2563EB;stroke-width:0.5;" x1="630.5" x2="774.5" y1="246.7188" y2="246.7188"/><text fill="#000000" font-family="sans-serif" font-size="14" lengthAdjust="spacing" textLength="92" x="656.5" y="238.6426">PreparingData</text><text fill="#000000" font-family="sans-serif" font-size="12" lengthAdjust="spacing" textLength="124" x="635.5" y="264.1758">entry / _prepare_data()</text></g><g id="elem_GMN8"><path d="M793,199.6094 L793,241.6094 L774.69,245.6094 L793,249.6094 L793,291.3672 A0,0 0 0 0 793,291.3672 L1074,291.3672 A0,0 0 0 0 1074,291.3672 L1074,209.6094 L1064,199.6094 L793,199.6094 A0,0 0 0 0 793,199.6094 " fill="#FEFFDD" style="stroke:#181818;stroke-width:0.5;"/><path d="M1064,199.6094 L1064,209.6094 L1074,209.6094 L1064,199.6094 " fill="#FEFFDD" style="stroke:#181818;stroke-width:0.5;"/><text fill="#000000" font-family="sans-serif" font-size="13" lengthAdjust="spacing" textLength="102" x="799" y="218.1045">Samples x values</text><text fill="#000000" font-family="sans-serif" font-size="13" lengthAdjust="spacing" textLength="188" x="799" y="234.4561">Runs _evaluate_target_function()</text><text fill="#000000" font-family="sans-serif" font-size="13" lengthAdjust="spacing" textLength="196" x="799" y="250.8076">Builds vertical line mode if needed</text><text fill="#000000" font-family="sans-serif" font-size="13" lengthAdjust="spacing" textLength="173" x="799" y="267.1592">Cleans NaNs and asymptotes</text><text fill="#000000" font-family="sans-serif" font-size="13" lengthAdjust="spacing" textLength="260" x="799" y="283.5107">Creates safe fallback if no valid points remain</text></g><g id="INITIALISING.ValidationError"><rect fill="#FFFFFF" height="52.7031" rx="12.5" ry="12.5" style="stroke:#2563EB;stroke-width:0.5;" width="144" x="849.5" y="422.6094"/><line style="stroke:#2563EB;stroke-width:0.5;" x1="849.5" x2="993.5" y1="450.2188" y2="450.2188"/><text fill="#000000" font-family="sans-serif" font-size="14" lengthAdjust="spacing" textLength="94" x="874.5" y="442.1426">ValidationError</text><text fill="#000000" font-family="sans-serif" font-size="12" lengthAdjust="spacing" textLength="124" x="854.5" y="467.6758">entry / raise ValueError</text></g><g id="INITIALISING.GeneratingAudio"><rect fill="#FFFFFF" height="52.7031" rx="12.5" ry="12.5" style="stroke:#2563EB;stroke-width:0.5;" width="219" x="372" y="348.6094"/><line style="stroke:#2563EB;stroke-width:0.5;" x1="372" x2="591" y1="376.2188" y2="376.2188"/><text fill="#000000" font-family="sans-serif" font-size="14" lengthAdjust="spacing" textLength="107" x="428" y="368.1426">GeneratingAudio</text><text fill="#000000" font-family="sans-serif" font-size="12" lengthAdjust="spacing" textLength="199" x="377" y="393.6758">entry / _generate_audio_sequence()</text></g><g id="elem_GMN15"><path d="M609,345.6094 L609,371.1094 L591.19,375.1094 L609,379.1094 L609,404.6641 A0,0 0 0 0 609,404.6641 L894,404.6641 A0,0 0 0 0 894,404.6641 L894,355.6094 L884,345.6094 L609,345.6094 A0,0 0 0 0 609,345.6094 " fill="#FEFFDD" style="stroke:#181818;stroke-width:0.5;"/><path d="M884,345.6094 L884,355.6094 L894,355.6094 L884,345.6094 " fill="#FEFFDD" style="stroke:#181818;stroke-width:0.5;"/><text fill="#000000" font-family="sans-serif" font-size="13" lengthAdjust="spacing" textLength="171" x="615" y="364.1045">Normalizes y into frequencies</text><text fill="#000000" font-family="sans-serif" font-size="13" lengthAdjust="spacing" textLength="264" x="615" y="380.4561">Generates one smooth centered stereo signal</text><text fill="#000000" font-family="sans-serif" font-size="13" lengthAdjust="spacing" textLength="239" x="615" y="396.8076">Can produce empty or fallback-safe audio</text></g><g id="INITIALISING.SettingUpPlot"><rect fill="#FFFFFF" height="52.7031" rx="12.5" ry="12.5" style="stroke:#2563EB;stroke-width:0.5;" width="128" x="417.5" y="496.6094"/><line style="stroke:#2563EB;stroke-width:0.5;" x1="417.5" x2="545.5" y1="524.2188" y2="524.2188"/><text fill="#000000" font-family="sans-serif" font-size="14" lengthAdjust="spacing" textLength="85" x="439" y="516.1426">SettingUpPlot</text><text fill="#000000" font-family="sans-serif" font-size="12" lengthAdjust="spacing" textLength="108" x="422.5" y="541.6758">entry / _setup_plot()</text></g><g id="elem_GMN20"><path d="M564,493.6094 L564,519.1094 L545.66,523.1094 L564,527.1094 L564,552.6641 A0,0 0 0 0 564,552.6641 L893,552.6641 A0,0 0 0 0 893,552.6641 L893,503.6094 L883,493.6094 L564,493.6094 A0,0 0 0 0 564,493.6094 " fill="#FEFFDD" style="stroke:#181818;stroke-width:0.5;"/><path d="M883,493.6094 L883,503.6094 L893,503.6094 L883,493.6094 " fill="#FEFFDD" style="stroke:#181818;stroke-width:0.5;"/><text fill="#000000" font-family="sans-serif" font-size="13" lengthAdjust="spacing" textLength="137" x="570" y="512.1045">Configures matplotlib UI</text><text fill="#000000" font-family="sans-serif" font-size="13" lengthAdjust="spacing" textLength="308" x="570" y="528.4561">Shows fallback message if no valid graph points exist</text><text fill="#000000" font-family="sans-serif" font-size="13" lengthAdjust="spacing" textLength="105" x="570" y="544.8076">Binds close_event</text></g><ellipse cx="701.5" cy="600.6094" fill="none" rx="11" ry="11" style="stroke:#222222;stroke-width:1.0;"/><ellipse cx="701.5" cy="600.6094" fill="#222222" rx="6" ry="6" style="stroke:#222222;stroke-width:1.0;"/><!--link *start*INITIALISING to PreparingData--><g id="link_*start*INITIALISING_PreparingData"><path d="M702.5,162.6694 C702.5,175.7094 702.5,194.2594 702.5,213.1094 " fill="none" id="*start*INITIALISING-to-PreparingData" style="stroke:#333333;stroke-width:1.0;"/><polygon fill="#333333" points="702.5,219.1094,706.5,210.1094,702.5,214.1094,698.5,210.1094,702.5,219.1094" style="stroke:#333333;stroke-width:1.0;"/></g><!--link PreparingData to ValidationError--><g id="link_PreparingData_ValidationError"><path d="M747.13,272.2794 C758.86,278.7894 771.57,285.6194 783.5,291.6094 C835.78,317.8294 867.6,299.4394 903.5,345.6094 C920.47,367.4294 923.644,393.7797 923.404,416.2797 " fill="none" id="PreparingData-to-ValidationError" style="stroke:#333333;stroke-width:1.0;"/><polygon fill="#333333" points="923.34,422.2794,927.4358,413.3226,923.3933,417.2797,919.4362,413.2372,923.34,422.2794" style="stroke:#333333;stroke-width:1.0;"/><text fill="#000000" font-family="sans-serif" font-size="13" lengthAdjust="spacing" textLength="399" x="885.5" y="324.1045">invalid shape, invalid vertical line, or other unexpected evaluation error</text></g><!--link PreparingData to GeneratingAudio--><g id="link_PreparingData_GeneratingAudio"><path d="M658.04,272.2594 C619.6,294.4394 569.5074,323.3416 531.0874,345.5016 " fill="none" id="PreparingData-to-GeneratingAudio" style="stroke:#333333;stroke-width:1.0;"/><polygon fill="#333333" points="525.89,348.4994,535.6847,347.4676,530.2212,346.0012,531.6876,340.5377,525.89,348.4994" style="stroke:#333333;stroke-width:1.0;"/><text fill="#000000" font-family="sans-serif" font-size="13" lengthAdjust="spacing" textLength="145" x="593.5" y="324.1045">valid data or safe fallback</text></g><!--link GeneratingAudio to SettingUpPlot--><g id="link_GeneratingAudio_SettingUpPlot"><path d="M481.5,401.8794 C481.5,428.5594 481.5,464.0094 481.5,490.5994 " fill="none" id="GeneratingAudio-to-SettingUpPlot" style="stroke:#333333;stroke-width:1.0;"/><polygon fill="#333333" points="481.5,496.5994,485.5,487.5994,481.5,491.5994,477.5,487.5994,481.5,496.5994" style="stroke:#333333;stroke-width:1.0;"/></g><!--link SettingUpPlot to *end*INITIALISING--><g id="link_SettingUpPlot_*end*INITIALISING"><path d="M545.51,549.3594 C548.54,550.4794 551.55,551.5594 554.5,552.6094 C605.26,570.6094 661.1806,587.6036 685.3406,594.8136 " fill="none" id="SettingUpPlot-to-*end*INITIALISING" style="stroke:#333333;stroke-width:1.0;"/><polygon fill="#333333" points="691.09,596.5294,683.6097,590.1227,686.2988,595.0996,681.322,597.7887,691.09,596.5294" style="stroke:#333333;stroke-width:1.0;"/></g><!--link ValidationError to *end*INITIALISING--><g id="link_ValidationError_*end*INITIALISING"><path d="M924.01,475.9094 C924.75,499.0194 921.87,532.3194 902.5,552.6094 C875.71,580.6694 756.4515,594.295 718.4415,598.015 " fill="none" id="ValidationError-to-*end*INITIALISING" style="stroke:#333333;stroke-width:1.0;"/><polygon fill="#333333" points="712.47,598.5994,721.8168,601.7037,717.4462,598.1124,721.0376,593.7418,712.47,598.5994" style="stroke:#333333;stroke-width:1.0;"/></g><g id="READY"><rect fill="#FFFFFF" height="50" rx="12.5" ry="12.5" style="stroke:#2563EB;stroke-width:0.5;" width="67" x="794" y="683"/><line style="stroke:#2563EB;stroke-width:0.5;" x1="794" x2="861" y1="710.6094" y2="710.6094"/><text fill="#000000" font-family="sans-serif" font-size="14" lengthAdjust="spacing" textLength="47" x="804" y="702.5332">READY</text></g><path d="M19.5,811 L1041.5,811 A12.5,12.5 0 0 1 1054,823.5 L1054,838.6094 L7,838.6094 L7,823.5 A12.5,12.5 0 0 1 19.5,811 " fill="#FFFFFF" style="stroke:#FFFFFF;stroke-width:1.0;"/><rect fill="none" height="363.6094" rx="12.5" ry="12.5" style="stroke:#2563EB;stroke-width:0.5;" width="1047" x="7" y="811"/><line style="stroke:#2563EB;stroke-width:0.5;" x1="7" x2="1054" y1="838.6094" y2="838.6094"/><text fill="#000000" font-family="sans-serif" font-size="14" lengthAdjust="spacing" textLength="73" x="494" y="830.5332">ANIMATING</text><ellipse cx="288.5" cy="859.6094" fill="#222222" rx="10" ry="10" style="stroke:#222222;stroke-width:1.0;"/><g id="ANIMATING.PendingFirstFrame"><rect fill="#FFFFFF" height="50" rx="12.5" ry="12.5" style="stroke:#2563EB;stroke-width:0.5;" width="141" x="218" y="906.6094"/><line style="stroke:#2563EB;stroke-width:0.5;" x1="218" x2="359" y1="934.2188" y2="934.2188"/><text fill="#000000" font-family="sans-serif" font-size="14" lengthAdjust="spacing" textLength="121" x="228" y="926.1426">PendingFirstFrame</text></g><g id="ANIMATING.NoPlotData"><rect fill="#FFFFFF" height="50" rx="12.5" ry="12.5" style="stroke:#2563EB;stroke-width:0.5;" width="91" x="19" y="1010.6094"/><line style="stroke:#2563EB;stroke-width:0.5;" x1="19" x2="110" y1="1038.2188" y2="1038.2188"/><text fill="#000000" font-family="sans-serif" font-size="14" lengthAdjust="spacing" textLength="71" x="29" y="1030.1426">NoPlotData</text></g><g id="ANIMATING.PlaybackAndSync"><rect fill="#FFFFFF" height="50" rx="12.5" ry="12.5" style="stroke:#2563EB;stroke-width:0.5;" width="133" x="446" y="1010.6094"/><line style="stroke:#2563EB;stroke-width:0.5;" x1="446" x2="579" y1="1038.2188" y2="1038.2188"/><text fill="#000000" font-family="sans-serif" font-size="14" lengthAdjust="spacing" textLength="113" x="456" y="1030.1426">PlaybackAndSync</text></g><g id="ANIMATING.SequenceComplete"><rect fill="#FFFFFF" height="50" rx="12.5" ry="12.5" style="stroke:#2563EB;stroke-width:0.5;" width="144" x="440.5" y="1114.6094"/><line style="stroke:#2563EB;stroke-width:0.5;" x1="440.5" x2="584.5" y1="1142.2188" y2="1142.2188"/><text fill="#000000" font-family="sans-serif" font-size="14" lengthAdjust="spacing" textLength="124" x="450.5" y="1134.1426">SequenceComplete</text></g><!--link *start*ANIMATING to PendingFirstFrame--><g id="link_*start*ANIMATING_PendingFirstFrame"><path d="M288.5,869.7594 C288.5,879.0294 288.5,887.7494 288.5,900.3894 " fill="none" id="*start*ANIMATING-to-PendingFirstFrame" style="stroke:#333333;stroke-width:1.0;"/><polygon fill="#333333" points="288.5,906.3894,292.5,897.3894,288.5,901.3894,284.5,897.3894,288.5,906.3894" style="stroke:#333333;stroke-width:1.0;"/></g><!--link PendingFirstFrame to NoPlotData--><g id="link_PendingFirstFrame_NoPlotData"><path d="M217.83,936.4194 C160.05,941.1694 84.84,951.6794 65.5,974.6094 C57.31,984.3294 55.8973,992.462 57.5073,1004.542 " fill="none" id="PendingFirstFrame-to-NoPlotData" style="stroke:#333333;stroke-width:1.0;"/><polygon fill="#333333" points="58.3,1010.4894,61.076,1001.0398,57.6395,1005.5332,53.1461,1002.0967,58.3,1010.4894" style="stroke:#333333;stroke-width:1.0;"/><text fill="#000000" font-family="sans-serif" font-size="13" lengthAdjust="spacing" textLength="423" x="66.5" y="989.1045">update [has_plot_data == False] / return without audio or point movement</text></g><!--link PendingFirstFrame to PlaybackAndSync--><g id="link_PendingFirstFrame_PlaybackAndSync"><path d="M359.19,939.9794 C409.29,946.5394 470.94,957.7294 490.5,974.6094 C500.91,983.5994 505.0392,992.1157 507.9292,1004.5257 " fill="none" id="PendingFirstFrame-to-PlaybackAndSync" style="stroke:#333333;stroke-width:1.0;"/><polygon fill="#333333" points="509.29,1010.3694,511.1445,1000.6967,508.156,1005.4997,503.353,1002.5112,509.29,1010.3694" style="stroke:#333333;stroke-width:1.0;"/><text fill="#000000" font-family="sans-serif" font-size="13" lengthAdjust="spacing" textLength="480" x="503.5" y="989.1045">update [audio_started == False] / sd.play(), record start_time, audio_started = True</text></g><!--link PlaybackAndSync to PlaybackAndSync--><g id="link_PlaybackAndSync_PlaybackAndSync"><path d="M579.1,1026.6294 C589.72,1027.9494 597,1030.9394 597,1035.6094 C597,1040.2794 595.6742,1042.5293 585.0542,1043.8493 " fill="none" id="PlaybackAndSync-to-PlaybackAndSync" style="stroke:#333333;stroke-width:1.0;"/><polygon fill="#333333" points="579.1,1044.5894,588.5247,1047.4487,584.0618,1043.9727,587.5379,1039.5098,579.1,1044.5894" style="stroke:#333333;stroke-width:1.0;"/><text fill="#000000" font-family="sans-serif" font-size="13" lengthAdjust="spacing" textLength="436" x="603" y="1041.1045">update [current_index &lt; len(x_clean)] / calculate elapsed time, update point</text></g><!--link PlaybackAndSync to SequenceComplete--><g id="link_PlaybackAndSync_SequenceComplete"><path d="M512.5,1060.7794 C512.5,1076.9194 512.5,1092.0794 512.5,1108.2594 " fill="none" id="PlaybackAndSync-to-SequenceComplete" style="stroke:#333333;stroke-width:1.0;"/><polygon fill="#333333" points="512.5,1114.2594,516.5,1105.2594,512.5,1109.2594,508.5,1105.2594,512.5,1114.2594" style="stroke:#333333;stroke-width:1.0;"/><text fill="#000000" font-family="sans-serif" font-size="13" lengthAdjust="spacing" textLength="345" x="513.5" y="1093.1045">update [current_index &gt;= len(x_clean)] / clamp to last index</text></g><!--link NoPlotData to NoPlotData--><g id="link_NoPlotData_NoPlotData"><path d="M110.16,1026.0994 C120.47,1026.9494 128,1030.1294 128,1035.6094 C128,1041.0894 126.4497,1043.7764 116.1397,1044.6264 " fill="none" id="NoPlotData-to-NoPlotData" style="stroke:#333333;stroke-width:1.0;"/><polygon fill="#333333" points="110.16,1045.1194,119.4582,1048.3664,115.1431,1044.7085,118.8009,1040.3934,110.16,1045.1194" style="stroke:#333333;stroke-width:1.0;"/><text fill="#000000" font-family="sans-serif" font-size="13" lengthAdjust="spacing" textLength="223" x="134" y="1041.1045">update / keep fallback message visible</text></g><!--link SequenceComplete to SequenceComplete--><g id="link_SequenceComplete_SequenceComplete"><path d="M584.53,1130.7694 C595.25,1132.1394 602.5,1135.0894 602.5,1139.6094 C602.5,1144.1294 601.2016,1146.3188 590.4816,1147.6888 " fill="none" id="SequenceComplete-to-SequenceComplete" style="stroke:#333333;stroke-width:1.0;"/><polygon fill="#333333" points="584.53,1148.4494,593.9645,1151.2762,589.4897,1147.8155,592.9503,1143.3407,584.53,1148.4494" style="stroke:#333333;stroke-width:1.0;"/><text fill="#000000" font-family="sans-serif" font-size="13" lengthAdjust="spacing" textLength="156" x="608.5" y="1145.1045">update / hold point position</text></g><ellipse cx="827.5" cy="1264" fill="none" rx="11" ry="11" style="stroke:#222222;stroke-width:1.0;"/><ellipse cx="827.5" cy="1264" fill="#222222" rx="6" ry="6" style="stroke:#222222;stroke-width:1.0;"/><!--link *start* to INITIALISING--><g id="link_*start*_INITIALISING"><path d="M827.5,26.23 C827.5,40.21 827.5,62.88 827.5,97.84 " fill="none" id="*start*-to-INITIALISING" style="stroke:#333333;stroke-width:1.0;"/><polygon fill="#333333" points="827.5,103.84,831.5,94.84,827.5,98.84,823.5,94.84,827.5,103.84" style="stroke:#333333;stroke-width:1.0;"/><text fill="#000000" font-family="sans-serif" font-size="13" lengthAdjust="spacing" textLength="255" x="828.5" y="70.4951">Instantiate / AudioVisualizer(target_function)</text></g><!--link INITIALISING to READY--><g id="link_INITIALISING_READY"><path d="M827.5,622.21 C827.5,646.58 827.5,661.78 827.5,676.88 " fill="none" id="INITIALISING-to-READY" style="stroke:#333333;stroke-width:1.0;"/><polygon fill="#333333" points="827.5,682.88,831.5,673.88,827.5,677.88,823.5,673.88,827.5,682.88" style="stroke:#333333;stroke-width:1.0;"/></g><!--link READY to ANIMATING--><g id="link_READY_ANIMATING"><path d="M802.18,733.13 C782.4,751.98 757.2535,775.9306 724.9035,806.7606 " fill="none" id="READY-to-ANIMATING" style="stroke:#333333;stroke-width:1.0;"/><polygon fill="#333333" points="720.56,810.9,729.8348,807.5866,724.1795,807.4505,724.3156,801.7953,720.56,810.9" style="stroke:#333333;stroke-width:1.0;"/><text fill="#000000" font-family="sans-serif" font-size="13" lengthAdjust="spacing" textLength="163" x="772.5" y="777.4951">play() / Start FuncAnimation</text></g><!--link ANIMATING to *end*--><g id="link_ANIMATING_*end*"><path d="M730.66,1175.29 C770.4,1211.28 800.0427,1238.1324 814.9827,1251.6624 " fill="none" id="ANIMATING-to-*end*" style="stroke:#333333;stroke-width:1.0;"/><polygon fill="#333333" points="819.43,1255.69,815.4441,1246.6838,815.7239,1252.3337,810.074,1252.6135,819.43,1255.69" style="stroke:#333333;stroke-width:1.0;"/><text fill="#000000" font-family="sans-serif" font-size="13" lengthAdjust="spacing" textLength="131" x="779.5" y="1219.4951">close_event / sd.stop()</text></g><!--link READY to *end*--><g id="link_READY_*end*"><path d="M861.19,711.71 C916.23,718.16 1024.04,739.73 1071.5,811 C1161.16,945.66 1164.49,1042.62 1071.5,1175 C1015.2,1255.15 884.4396,1262.5638 844.5796,1263.0038 " fill="none" id="READY-to-*end*" style="stroke:#333333;stroke-width:1.0;"/><polygon fill="#333333" points="838.58,1263.07,847.6236,1266.9704,843.5797,1263.0148,847.5353,1258.9709,838.58,1263.07" style="stroke:#333333;stroke-width:1.0;"/><text fill="#000000" font-family="sans-serif" font-size="13" lengthAdjust="spacing" textLength="131" x="1140.5" y="998.4951">close_event / sd.stop()</text></g><!--SRC=[bLLjRnit3Fv-luB0FimUaWLeiNqObWAEcnG6MYEeqm93KnoKE_eiH4UfefJO6_RVH-dEYSzs0imm_4AHVFY83tbyhyafhrhWe0B2FmN0XQhk6syZrLDhh8UVblcLJgolqVVMDx_z_lRoGgmJx-rZRtoRNyM_HV7jb-zmUleEPlFPpMpoSRQOpJ_07p0Z0QAW4zWPJ6AjxLVDKHdzD_fHKBx1K2uZLK5R6XT5LzOWIQfnc_tQevIlgNclWYhaO60GFAJWDu9Kkdo0PItsqLWyoKfYhvjL0BiyY5kerXbaMCE3CX7vbZv7OYWn_PMIohrIH-DRkeZQr0mFw8Ekb06Z2Q6rDO9U0Y7MMD_IrA2IH7CrPr1KW-9DwuBK8X1JZvAQWTKIOQcCkPDMv62Roj0rEAifC7XibQP3lkbAlYP7bMgwbCPuuQAf2-QLSdZoz7TGvmc8gmqhz109rmwhW3NqR2KNO4fs5F034dfneYQtKm2x_EccKzO16yaWxyEGfpurtH6MAfsKZ3yYKeL7MdQOP6vzcvN4i16QmSBIT_4wNMyV8ATM6iEj5RvG2J9wuShfomBhXfIHNYW2vsqTAmIK3cqIbIsBqymfLtYSKBgN1OPa-EAkZGsTsy2qovenH5SwiHuXkXyrjRJKJVH2f5KX1Hbz1rzcjxHOsKT-LawBpAh1WO8QhznggoDSQmuYN4sYsyfOHX6u57MisaH9nYw9hXlAFQ69_L1wMu9UQSuH4LzotkQNtL7yF9puqtmLSlxvSlB-hs9uzcHEOVdNi_zaFliqkUasZpDgCnfBBGiPtG1NChWJqcskeEZZ_az8lvgU_GTx2QcMgxlIdiELh5VCixflpAvpcwwtNplHrIdfjvNYh8Qyhk3y7AwKOVoURbAKuWaUTLZP63eD9cdcZigsUS2sQ-1nj6kXbBGneNgneMe7if-tn5IcOHUIwr-xcpWHz4gU0P2zog1RsHjxSN3Z8tRwsSTw7R-AtalbfMWHr_0d6AJHkgpIkXodAcHJLT4aLpJAiM1r-7ryvlyoxgBV8rERzhhulmJyxlmGsSZ306IR6CK1ibjgvqxZNkhZ6TmZkiE1VD2ixmpc6Tkhw_LYps1bJVyOa4_MMOffP9vrs0-I1ErCTDT63jR9WYbszFwwvty0]--></g></svg>